# xmcd
#
# Track frame offsets:
#	150
#	18780
#	43530
#	72252
#	98956
#	121683
#	139836
#	163378
#	185973
#	205784
#
# Disc length: 3034 seconds
#
# Revision: 1
# Processed by: cddbd v1.5.1PL0 Copyright (c) Steve Scherf et al.
# Submitted via: CDex 1.50Beta5
#
DISCID=8c0bd80a
DTITLE=宮崎駿コレクション - となりのトトロ
DYEAR=1900
DGENRE=
TTITLE0=いつも何度でも
TTITLE1=いのちの名前
TTITLE2=もののけ姫
TTITLE3=風の谷のナウシカ
TTITLE4=となりのトトロ
TTITLE5=風の通り道
TTITLE6=さくらんぼの実る頃
TTITLE7=君をのせて
TTITLE8=海の見える街
TTITLE9=旅立ち
EXTD=
EXTT0=
EXTT1=
EXTT2=
EXTT3=
EXTT4=
EXTT5=
EXTT6=
EXTT7=
EXTT8=
EXTT9=
PLAYORDER=
